# xmcd CD database file
#
# Track frame offsets:
#	150
#	9466
#	22056
#	33753
#	44256
#	61463
#	72777
#	87842
#	98164
#	109827
#	122405
#	133736
#
# Disc length: 1907 seconds
#
# Revision: 3
# Processed by: cddbd v1.5.1PL0 Copyright (c) Steve Scherf et al.
# Submitted via: CDex 1.50
#
DISCID=9707710c
DTITLE=Soul Essentials - CD4
DYEAR=2000
DGENRE=Soul
TTITLE0=Otis Redding - Fat Girl
TTITLE1=First Choice - Armed and extremely dangerouse
TTITLE2=The Jones Girls - If you dont start nothing
TTITLE3=Bobby Womack - It's gonna rain
TTITLE4=The Nations - Super people
TTITLE5=Gene Handler - Just to be true
TTITLE6=The Platters - Great pretender
TTITLE7=The Accents - Who you gonna love
TTITLE8=Otis Clay - Got to find a way
TTITLE9=Joe and Mack - Dont you worry
TTITLE10=The Admirations - Dont leave me
TTITLE11=Bobby Davis - Dampen Down
EXTD=YEAR: 2000
EXTT0=
EXTT1=
EXTT2=
EXTT3=
EXTT4=
EXTT5=
EXTT6=
EXTT7=
EXTT8=
EXTT9=
EXTT10=
EXTT11=
PLAYORDER=
